<svg height="512" viewBox="0 0 46 60" width="512" xmlns="http://www.w3.org/2000/svg"><g id="Page-1" fill="#35c5a3" fill-rule="evenodd"><g id="001---Vase" fill="#35c5a3" transform="translate(-1)"><path id="Shape" d="m9.511 58.862c.9013018.7333567 2.0270412 1.1350787 3.189 1.138h22.6c1.1614644-.0032564 2.2865682-.4053566 3.187-1.139 8.7830001-7.1261139 11.0834527-19.5793378 5.426-29.373-1.2503116-2.087515-2.7944644-3.9842803-4.585-5.632l-.324-.309c-2.86-2.728-5.119-4.883-4.8-10.143.3699582-2.7229 1.4951173-5.28776382 3.248-7.404h.548c1.6568542-.00000002 3-1.34314577 3-3s-1.3431458-2.99999998-3-3h-28c-1.65685423.00000002-2.99999996 1.34314577-2.99999996 3s1.34314573 2.99999998 2.99999996 3h.548c1.750402 2.11568749 2.8737671 4.6790245 3.243 7.4.322 5.26-1.937 7.415-4.8 10.143l-.324.309c-1.79053558 1.6477197-3.33468842 3.544485-4.585 5.632-5.65759158 9.7939686-3.35715265 22.2475427 5.426 29.374zm-.511-55.862c0-.55228475.44771525-1 1-1h28c.5522847 0 1 .44771525 1 1s-.4477153 1-1 1h-28c-.55228475 0-1-.44771525-1-1zm-3.184 27.49c1.1563578-1.92408 2.5832825-3.6719533 4.237-5.19l.322-.307c2.978-2.841 5.792-5.524 5.412-11.712-.3183817-2.6053451-1.2446167-5.09939726-2.704-7.281h21.834c-1.4581139 2.18226163-2.3829758 4.6766483-2.7 7.282-.38 6.188 2.434 8.871 5.412 11.712l.322.307c1.6536422 1.5177409 3.0805635 3.2652732 4.237 5.189 4.2981882 7.4453867 3.6267637 16.7581828-1.695 23.51h-22.493c-.5522847 0-1 .4477153-1 1s.4477153 1 1 1h20.685c-.464.454-.947.894-1.457 1.309-.5443405.4447359-1.2250836.6887159-1.928.691h-22.6c-.7020362-.002865-1.3818546-.2464137-1.926-.69-.51-.415-.992-.856-1.457-1.31h4.683c.5522847 0 1-.4477153 1-1s-.4477153-1-1-1h-6.493c-5.32048673-6.7526624-5.9903236-16.065415-1.691-23.51z" fill-rule="nonzero"/><path id="Path" d="m9.278 32.494c.969648-1.5942862 2.1616411-3.0421874 3.54-4.3.2677014-.2446666.3819547-.6150945.29858-.9680456-.0833746-.352951-.3513079-.6330982-.7001943-.7321134-.3488865-.0990152-.7240364-.0013772-.9803857.255159-1.51641967 1.3880753-2.82606812 2.9863246-3.889 4.746-1.66874514 2.8897805-2.54719179 6.1680041-2.547 9.505 0 .5522847.44771525 1 1 1s1-.4477153 1-1c-.00092232-2.9861971.78476972-5.9199533 2.278-8.506z"/></g></g></svg>